<svg xmlns="http://www.w3.org/2000/svg" viewBox="0 5 65.28214263916016 39.04999923706055" data-asc="0.881" width="65.28214263916016" height="39.04999923706055"><defs/><g fill="#000000"><g transform="translate(0, 0)"><path d="M2.60 44.05Q1.50 44.05 0.75 43.30Q0 42.55 0 41.45L0 7.60Q0 6.45 0.75 5.72Q1.50 5.00 2.60 5.00L11.65 5.00Q15.95 5.00 19.48 6.42Q23 7.85 25.60 10.47Q28.20 13.10 29.60 16.65Q31 20.20 31 24.50Q31 28.80 29.60 32.38Q28.20 35.95 25.60 38.57Q23 41.20 19.48 42.63Q15.95 44.05 11.65 44.05L2.60 44.05M5.20 39.45L11.65 39.45Q15.85 39.45 19.08 37.52Q22.30 35.60 24.15 32.22Q26 28.85 26 24.50Q26 20.10 24.15 16.75Q22.30 13.40 19.08 11.50Q15.85 9.60 11.65 9.60L5.20 9.60L5.20 39.45ZM41.75 44.05Q40.70 44.05 39.93 43.30Q39.15 42.55 39.15 41.45L39.15 7.60Q39.15 6.50 39.93 5.75Q40.70 5.00 41.75 5.00Q42.85 5.00 43.60 5.75Q44.35 6.50 44.35 7.60L44.35 22.60L60.90 6.05Q61.50 5.45 62.00 5.22Q62.50 5.00 63.05 5.00Q64.30 5.00 64.85 5.75Q65.40 6.50 65.25 7.52Q65.10 8.55 64.30 9.40L51.55 22.20L64.55 39.90Q65.15 40.75 65.05 41.72Q64.95 42.70 64.35 43.38Q63.75 44.05 62.75 44.05Q61.35 44.05 60.60 42.95L47.95 25.80L44.35 29.40L44.35 41.45Q44.35 42.55 43.60 43.30Q42.85 44.05 41.75 44.05Z"/></g></g></svg>